<svg width="24" height="24" viewBox="0 0 24 24" fill="none" xmlns="http://www.w3.org/2000/svg">
<path fill-rule="evenodd" clip-rule="evenodd" d="M16.9072 5.82151C16.9072 5.05263 17.5395 4.42105 18.3093 4.42105C19.079 4.42105 19.7113 5.05263 19.7113 5.82151C19.7113 6.59039 19.079 7.22197 18.3093 7.22197C17.5395 7.22197 16.9072 6.59039 16.9072 5.82151ZM6.0756 12.1648C6.0756 8.89702 8.74227 6.23341 12.0137 6.23341C15.2852 6.23341 17.9519 8.89702 17.9519 12.1648C17.9519 15.4325 15.2852 18.0961 12.0137 18.0961C8.74227 18.0961 6.0756 15.4325 6.0756 12.1648ZM8.21993 12.1648C8.21993 14.2517 9.9244 15.9542 12.0137 15.9542C14.1306 15.9542 15.8076 14.2517 15.8076 12.1648C15.8076 10.0778 14.1031 8.37529 12.0137 8.37529C9.9244 8.37529 8.21993 10.0778 8.21993 12.1648ZM16.7698 0C20.756 0 24 3.24028 24 7.22197V16.778C24 20.7597 20.756 24 16.7698 24H7.23025C3.24399 24 0 20.7597 0 16.778V7.22197C0 3.24028 3.24399 0 7.23025 0H16.7698ZM16.7423 21.7483C19.4914 21.7483 21.7182 19.524 21.7182 16.778V7.22197C21.7182 4.47597 19.4914 2.25172 16.7423 2.25172H7.20275C4.45361 2.25172 2.22681 4.47597 2.22681 7.22197V16.778C2.22681 19.524 4.45361 21.7483 7.20275 21.7483H16.7423Z" fill="white"/>
</svg>
