<svg width="151" height="93" viewBox="0 0 151 93" fill="none" xmlns="http://www.w3.org/2000/svg">
<g clip-path="url(#clip0_2005_2)">
<path fill-rule="evenodd" clip-rule="evenodd" d="M140.604 20.8414C138.734 22.0585 134.588 26.1967 130.962 30.1774C130.962 30.027 130.984 29.8481 130.984 29.712V29.6834L130.941 28.6381V28.5951C130.705 26.8625 129.635 25.5237 128.072 25.0154C125.331 24.1205 121.784 25.939 119.486 28.1369L119.458 28.1656C119.458 28.1656 117.381 30.3564 117.003 30.7502C115.604 30.2132 113.713 29.9984 111.236 30.6642C108.432 31.373 105.912 33.077 103.95 35.5184C103.643 33.8788 103.036 32.583 102.137 31.688C101.131 30.6857 99.3038 29.6476 96.3135 30.4208L96.2492 30.4351C94.5578 30.9291 93.0663 31.8527 91.696 33.1915C91.5675 33.1128 91.4391 33.0269 91.3035 32.9696L91.225 32.9338L91.1179 32.898C87.6994 31.7382 84.7662 33.5925 82.8607 35.0888C82.3897 35.4396 82.04 35.769 81.7331 36.0553L80.4271 37.2724C81.2264 37.4443 82.4825 37.9956 82.4967 39.1554C82.4967 39.3988 82.4682 39.6422 82.4539 39.8857C82.4539 39.8857 82.4539 39.9429 82.4539 39.9501C82.3611 39.8642 82.2684 39.7639 82.1685 39.678C80.4271 38.239 78.1433 37.9096 75.3885 38.6542C75.6027 37.9669 75.7383 37.2438 75.7525 36.4634V36.4419L75.724 35.5756C75.5812 33.4851 75.046 32.5543 74.3109 31.4661L73.6971 30.5568L72.7551 31.1224C72.1199 31.5091 71.2778 32.0031 70.3786 32.4183C69.6149 32.7834 68.6586 33.2059 67.2313 33.6569C63.7771 34.7451 60.6512 35.4396 56.7617 35.9694C55.1916 36.1842 54.1568 36.1914 52.6652 35.7045L51.5304 36.8142L51.5162 36.8286C50.1816 38.2533 49.475 39.7926 49.4465 41.246C49.4322 41.9333 49.5678 42.5991 49.8604 43.2291C50.1673 43.8878 50.6241 44.4462 51.195 44.8973C49.4108 45.6634 47.698 46.9807 46.7702 48.2981C45.4428 47.0953 43.1448 45.9068 40.7682 46.3507C40.183 46.4581 39.5122 46.6872 38.8484 47.1024C38.9127 46.902 38.984 46.68 39.034 46.4939C39.555 44.7112 39.8333 43.1361 39.8547 41.8044C39.8975 39.7854 39.3694 38.239 38.2846 37.208C36.843 35.8334 34.809 35.6043 32.2398 36.5207L30.3629 37.1865C30.3629 37.1865 30.5627 39.091 30.5698 39.1411C30.5698 39.1912 30.5841 39.4489 30.5841 39.5134C30.577 39.8785 30.4913 40.3868 30.32 41.2531C29.9917 42.9499 28.1576 47.4676 26.4591 51.1618C24.2467 47.5893 21.392 42.9428 20.3215 41.1672C18.1091 37.4729 15.4899 35.5542 12.5424 35.4683C9.15246 35.368 5.82674 37.7235 2.65803 42.4846C2.20841 43.1933 1.9158 43.6515 1.59465 44.2887L0.723969 45.9712C2.36542 45.7994 4.11392 45.8567 5.55554 46.8948C6.1693 47.3387 6.87584 48.1191 7.96062 49.3863C9.61635 51.4124 14.7905 57.9419 19.1582 64.1348C16.539 69.168 12.4211 75.3609 10.3728 78.0171L10.3229 78.0815L10.2872 78.1316C8.85985 80.2079 5.71969 83.6946 4.39225 84.6683L3.52157 85.3054L3.37884 86.3794L3.40738 86.3507C3.36456 86.5369 3.35029 86.7373 3.33602 86.902V86.9593C3.30747 88.3196 3.82845 89.594 4.79905 90.5462C6.04798 91.7705 7.98917 92.4148 9.94464 92.2144C13.7842 91.8063 17.1456 88.6203 19.2295 85.5632C21.2849 82.7137 24.1396 78.1961 26.5304 74.0078C27.1085 74.6378 27.7651 75.2464 28.7071 75.9408C30.8624 77.4873 33.3531 77.745 35.5513 76.6639C35.5513 76.6639 35.5584 76.6639 35.5655 76.6568C35.5513 76.8358 35.537 77.0076 35.537 77.1794C35.4942 79.2199 36.2935 81.067 37.7779 82.3056C39.6121 83.8377 42.1884 84.2244 45.0289 83.3867C49.2253 82.1624 52.394 78.9192 54.4494 73.7572C55.7411 70.5211 56.3691 67.0416 56.7545 64.3854C57.3469 65.1873 58.0249 65.667 58.6315 65.9534C60.1516 66.6621 63.2989 67.1919 67.3669 62.8247C67.5453 62.6385 67.6951 62.4452 67.845 62.2591C69.5935 63.7554 71.9772 64.3425 74.5321 63.8127C77.1228 63.154 79.2495 61.765 81.0194 59.7461C80.998 60.3546 80.9695 61.0706 80.9695 61.0706C80.8981 64.5787 81.8402 68.7813 86.0294 69.3827C88.9769 69.8052 92.0742 67.8721 94.1225 64.3425C94.6649 63.4046 94.986 62.3879 95.3215 61.3641L94.1796 61.0276C93.5301 60.8343 93.316 60.6768 93.0377 60.3475C92.9449 60.2401 92.7951 59.9394 92.6809 59.1733C93.316 59.1232 93.9583 59.023 94.6221 58.8225L94.6934 58.801L94.7719 58.7724C97.4839 57.7486 99.5321 55.6007 101.124 52.1427C101.645 53.3312 102.315 54.3478 103.165 55.1139C104.556 56.3596 107.019 57.6627 110.858 56.7463C113.456 56.0589 115.533 54.7559 117.431 52.651L117.481 52.5937C117.767 52.2501 118.038 51.885 118.295 51.5198C118.459 53.0734 119.172 54.3192 120.379 55.0638C122.477 56.3596 125.132 55.6365 126.181 55.2642H126.209L127.58 54.67L128.793 54.1116L128.6 53.2023C128.443 52.4506 128.372 51.7346 128.386 50.9972C128.393 50.5891 128.429 50.1738 128.493 49.7586C128.493 49.7586 128.493 49.7729 128.493 49.7944C128.507 49.7228 128.529 49.5366 128.6 48.9352C129.25 49.7944 129.949 50.6893 130.748 51.6344C133.16 54.5268 136.151 57.5768 140.019 58.307L140.083 58.3213L140.176 58.3357C143.188 58.6936 146.064 57.7414 148.069 55.7153C149.546 54.2261 150.389 52.2859 150.424 50.3815C150.424 50.0664 150.417 49.7514 150.374 49.4436C150.324 48.8493 150.203 48.1047 150.075 47.5821L149.732 46.2146L148.462 46.816C147.477 47.2814 146.913 47.5177 145.743 47.2886C144.458 46.995 142.167 45.513 140.212 43.7017C137.985 41.6111 136.279 39.9143 135.116 38.6399C137.05 36.6424 140.725 33.3204 143.202 31.5019C143.73 31.1153 144.422 30.9077 144.879 31.6308L146.984 30.0485C151.323 26.7194 151.281 23.2828 149.925 21.3497C148.397 19.1733 144.622 18.264 140.633 20.8557L140.604 20.8414ZM118.98 31.9028C118.837 31.7811 118.68 31.6666 118.516 31.5449C118.651 31.552 118.844 31.5663 118.844 31.5663C119.115 31.5878 119.301 31.6093 119.365 32.268C119.244 32.1463 119.115 32.0102 118.98 31.8957V31.9028ZM67.3526 44.4677C67.1956 44.704 67.0457 44.9546 66.8958 45.2052C66.9101 44.9904 66.9244 44.7827 66.9387 44.568C67.1171 44.525 67.1456 44.5178 67.3454 44.4677H67.3526ZM111.229 42.1123C111.244 42.4058 111.258 42.7065 111.258 43.0358C111.179 44.3747 111.044 45.3913 110.844 46.2075C110.822 45.8996 110.815 45.5703 110.808 45.1765C110.88 44.2529 111.001 43.1862 111.229 42.1123ZM74.5678 52.1857C74.5821 51.6415 74.6249 51.1117 74.6892 50.6177C74.7034 50.7967 74.7106 50.9614 74.7106 51.1189C74.6892 51.6988 74.6392 52.1928 74.575 52.6367C74.575 52.6081 74.575 52.5794 74.575 52.5508C74.575 52.515 74.575 52.1928 74.575 52.1928L74.5678 52.1857ZM34.9518 57.6913C34.9304 58.035 34.909 58.3786 34.9018 58.7223C34.859 60.7627 35.0089 62.8032 35.33 64.6288C35.3443 64.6933 35.3586 64.7506 35.3728 64.815C34.7876 64.0418 34.0597 63.0036 33.1676 61.6505C33.7956 60.3117 34.3951 58.9872 34.9518 57.6841V57.6913ZM46.4919 56.0876C46.4134 57.1329 46.3063 58.0994 46.1636 58.9013C46.2421 57.9634 46.3563 56.9968 46.4919 56.0876Z" fill="#FAEACC"/>
<path fill-rule="evenodd" clip-rule="evenodd" d="M76.909 10.6246C76.909 10.6246 77.2016 10.5458 77.4942 10.4742C77.587 10.868 77.6012 11.5553 77.587 12.2212C77.587 12.4359 77.5727 12.6364 77.5656 12.8297C76.3095 13.202 75.396 13.5385 74.7037 13.8893C74.7894 13.3882 74.8821 12.9443 74.9821 12.5362C75.2247 11.584 75.8028 10.9826 76.8019 10.6604L76.909 10.6318V10.6246ZM83.3392 9.09246C83.8958 8.96359 84.3597 8.8562 84.7665 8.74881C84.6952 9.78693 84.6238 10.7964 84.5952 11.2188C83.8173 11.2475 83.1393 11.3549 82.5113 11.4909C82.5113 11.4193 82.5327 11.1329 82.5327 11.1329C82.5756 10.51 82.6184 9.93728 82.6255 9.44328C82.6255 9.37884 82.6255 9.32157 82.6255 9.25713C82.9823 9.17122 83.332 9.09246 83.332 9.09246H83.3392ZM77.3229 17.8485C77.2587 19.1587 77.1802 20.4832 77.0945 21.7791C76.5093 21.9437 76.0312 22.044 75.5173 22.1514C75.4317 22.1514 75.3746 22.137 75.3103 22.0798C75.1034 21.8936 74.6466 21.2063 74.511 18.7792C74.5396 18.7649 74.9107 18.5788 74.9107 18.5788C75.1105 18.4714 75.3318 18.3425 76.1168 18.1421C76.1311 18.1421 77.2944 17.8628 77.3372 17.8485H77.3229ZM84.1599 16.2877C84.1314 16.6171 84.1028 16.9035 84.0671 17.1326L84.0172 17.4834C83.7674 19.2017 83.6746 19.8389 82.2258 20.204H82.1973L81.7762 20.3472C81.7049 20.3687 81.6406 20.383 81.5764 20.4045C81.6121 20.1467 81.6692 19.7887 81.6692 19.7887V19.8174C81.7691 19.1873 81.919 18.1421 82.076 16.7102C82.7611 16.5526 83.3891 16.4095 84.1599 16.2806V16.2877Z" fill="#FAEACC"/>
<path fill-rule="evenodd" clip-rule="evenodd" d="M76.1361 4.10955C80.8036 3.03562 85.5138 2.02613 90.0742 0.536961L91.7156 0L91.3874 1.6968C91.1376 2.99267 91.0234 4.35297 90.8949 5.66315C90.481 9.92305 90.1813 14.1901 89.7959 18.4428V18.4715C89.4319 21.4283 87.7476 23.5905 84.9143 24.4783H84.9001L84.8929 24.4854C82.9589 25.0439 81.032 25.6381 79.0908 26.1822C77.592 26.6047 76.0148 27.0199 74.4733 27.2347C73.3314 27.385 72.2252 27.1917 71.2974 26.4829C68.7782 24.5356 68.9495 19.8604 68.9423 16.9823V16.9393C69.0208 15.0922 69.1493 13.2093 69.3705 11.3693C69.8772 7.40291 72.4108 5.15483 76.0933 4.1167H76.1147L76.1433 4.10239L76.1361 4.10955ZM81.7956 20.1468C81.9026 20.111 82.0097 20.0752 82.1167 20.0466L82.1524 20.0322H82.181C82.6163 19.9177 83.0945 19.7459 83.3585 19.3593C83.694 18.8509 83.801 17.7054 83.8938 17.104C83.9223 16.9107 83.9509 16.7102 83.9652 16.5098C83.3871 16.6172 82.8161 16.7389 82.2452 16.8749C82.1381 17.8701 82.0097 18.8652 81.8455 19.8461C81.8313 19.9463 81.817 20.0537 81.8027 20.154L81.7956 20.1468ZM76.9212 21.636C76.9997 20.4547 77.0711 19.2733 77.1282 18.0849C76.7999 18.1636 76.4716 18.2424 76.1433 18.3211C75.658 18.4428 75.344 18.5431 74.9158 18.7793C74.8444 18.8223 74.7659 18.8581 74.6874 18.8939C74.7017 19.1158 74.7159 19.3378 74.7374 19.5597C74.8016 20.1396 74.8944 20.784 75.087 21.3353C75.137 21.4713 75.3083 21.8937 75.4582 21.9653C75.4582 21.9653 75.4724 21.9653 75.4867 21.9653C75.9791 21.8651 76.4502 21.7577 76.9283 21.6288L76.9212 21.636ZM82.8161 9.40757C82.8161 9.57223 82.809 9.72974 82.7947 9.88009C82.7733 10.3455 82.7376 10.8037 82.7091 11.269C83.2872 11.1545 83.851 11.0686 84.429 11.0399C84.479 10.3598 84.529 9.67247 84.5789 8.99232C84.529 9.00663 84.479 9.02095 84.429 9.02811C83.8938 9.15698 83.3514 9.27869 82.8161 9.40757ZM75.1584 12.5721C75.0799 12.9014 75.0085 13.2307 74.9514 13.5529C75.7222 13.1949 76.5786 12.9229 77.3922 12.6795C77.4136 12.0494 77.4279 11.2046 77.3494 10.6963C77.1781 10.7392 77.0068 10.7893 76.8427 10.8395C75.9649 11.133 75.4011 11.6556 75.1656 12.5721H75.1584Z" fill="white"/>
<path fill-rule="evenodd" clip-rule="evenodd" d="M74.1732 12.3287C74.5229 10.9469 75.4436 10.2238 76.5426 9.86579C76.978 9.74408 77.4133 9.61521 77.8701 9.51498V9.52214C78.5266 9.96603 78.4553 11.7559 78.3696 13.4599C76.8352 13.8894 75.6148 14.3047 74.7442 14.8058C74.4801 14.949 74.0662 15.2569 73.6879 15.6292C73.7593 14.1686 73.9734 13.1806 74.1732 12.3287ZM81.7667 8.60572C83.7222 8.1332 84.9711 7.90409 85.6777 7.58192C85.5991 9.10689 85.485 10.5101 85.3708 12.0566C84.2574 11.9993 83.3582 12.1568 82.3876 12.3788C82.1236 12.436 81.8738 12.5148 81.6026 12.5792C81.6311 12.1998 81.6525 11.8347 81.6739 11.491C81.7524 10.3312 81.8524 9.19996 81.7596 8.61288L81.7667 8.60572ZM78.2126 16.7819C78.1198 18.7006 78.0199 20.6265 77.8843 22.4164C76.9922 22.7028 76.3928 22.8245 75.6291 22.982C73.9163 23.1753 73.6665 19.8962 73.6308 17.82C73.7736 17.8844 73.9663 17.9632 74.1732 18.0133C74.6014 17.8415 74.6371 17.6553 75.9003 17.3403C76.7353 17.1327 77.3848 16.9895 78.2126 16.7819ZM80.5677 21.5716C80.6034 21.0775 80.7533 20.3688 80.8389 19.6886C80.9817 18.8366 81.153 17.598 81.31 16.0373C82.2877 15.8153 83.0727 15.6149 84.1647 15.4359C84.493 15.3929 84.7856 15.3714 85.0496 15.4001C85.0282 15.7437 84.9854 16.5957 84.8855 17.2472C84.5929 19.2089 84.5429 20.4762 82.4233 21.006C81.7596 21.2207 81.1672 21.4284 80.5677 21.5644V21.5716ZM88.7893 18.3569C89.1747 14.097 89.4744 9.82284 89.8883 5.56294C90.0667 3.70864 90.1881 2.57744 90.395 1.50351C85.8132 2.99985 81.0388 4.03081 76.3713 5.10474C73.7165 5.84932 70.8975 7.46021 70.3765 11.5053C70.1552 13.3238 70.0196 15.4717 69.9554 16.9895C69.9554 19.8533 69.6057 26.8767 74.3302 26.2395C76.8781 25.8959 80.3037 24.7647 84.6071 23.5189C86.8623 22.8101 88.4467 21.1348 88.7893 18.3569Z" fill="#111C4E"/>
<path fill-rule="evenodd" clip-rule="evenodd" d="M140.319 20.6478C138.214 22.0153 132.868 27.478 128.95 31.967C129 31.5589 129.079 30.8859 129.079 30.8859V30.8501C129.186 29.991 129.236 29.275 129.25 28.7094L129.214 27.7357C129.029 26.3539 128.222 25.3301 126.995 24.9292C124.633 24.1631 121.371 25.8957 119.344 27.8288L117.653 29.6043L118.11 29.633C119.473 29.7475 119.558 30.8501 119.53 32.282L119.487 33.3989C119.487 33.3989 119.459 33.8213 119.43 34.2652C118.987 33.1841 118.367 32.2963 117.582 31.6305C116.39 30.6281 114.22 29.6258 110.687 30.578C107.298 31.4372 104.407 33.7783 102.459 37.1862C102.437 34.4871 101.845 32.5183 100.675 31.3513C99.8396 30.5208 98.3124 29.6616 95.7431 30.3275L95.7003 30.3418C93.9161 30.8573 92.3675 31.8811 90.9687 33.4347C90.7189 33.1841 90.4405 32.9693 90.1265 32.8333L90.0766 32.8118L90.0052 32.7903C87.0649 31.788 84.5242 33.3559 82.6401 34.8308C82.1976 35.1601 81.8764 35.4608 81.5696 35.74L81.1985 36.0908C82.1905 36.4918 82.6329 37.0359 82.6401 38.1742C82.6401 38.1886 82.6401 38.2029 82.6401 38.21C82.6258 38.3819 82.5473 39.6921 82.5473 39.6921L82.4617 40.9593C82.4474 41.1956 82.4331 41.4318 82.4117 41.6824C82.012 40.7445 81.4625 39.9784 80.7702 39.4057C79.2216 38.1241 77.1377 37.8592 74.5613 38.6181L74.5185 38.6325C73.8476 38.8472 73.2124 39.105 72.6058 39.3985C73.4051 38.432 73.9761 37.1576 74.0118 35.4393L73.9832 34.5945C73.8619 32.776 73.4051 31.9813 72.7343 30.9861L72.6201 30.8143L72.4417 30.9217C71.7851 31.3226 70.9073 31.8309 69.9724 32.2677C69.1945 32.64 68.2024 33.0767 66.718 33.5492C63.2139 34.6518 60.038 35.3534 56.0985 35.8975C54.9281 36.055 54.0717 36.1266 53.5008 36.098C53.0726 36.0765 52.68 35.9548 52.2518 35.8188L52.1305 35.7758L51.4168 36.4703C49.7326 38.2816 49.1902 40.229 49.9253 41.8256C50.6461 43.3864 52.4588 44.2455 54.7568 44.1238C54.7568 44.1238 56.384 44.0235 57.0192 43.9878C56.9549 44.4531 56.4054 48.6199 56.4054 48.6199C56.3483 49.0137 56.2984 49.4075 56.2413 49.8013C56.2413 49.7798 56.2413 49.7583 56.2413 49.7368C56.2627 49.4433 56.277 49.1569 56.2841 48.8777C56.2984 48.0973 56.2484 47.3885 56.1128 46.5795C55.9058 45.2908 55.0352 44.403 53.7791 44.1954C51.5096 43.8231 48.0554 45.9065 46.7137 47.8825C46.4853 48.219 46.2927 48.5698 46.1428 48.892C45.9501 48.6199 45.736 48.355 45.4719 48.0973C44.3301 47.0091 42.2604 45.8707 40.1479 46.2716C38.8919 46.5079 37.1862 47.3599 36.187 50.102L36.1728 50.1378L36.1585 50.195C35.4876 52.4216 35.1094 55.0277 35.0523 57.734C35.0095 59.71 35.1593 61.6932 35.4662 63.4616C35.7517 64.8791 36.2227 66.1034 36.8507 67.0986C36.6937 67.1201 36.5439 67.1272 36.4083 67.0771C36.1157 66.984 34.881 66.2394 31.3055 60.7266C34.1745 54.727 36.3012 48.7918 37.3432 45.2263C37.8356 43.5295 38.1068 42.0332 38.1282 40.7875C38.1639 39.0405 37.7357 37.7375 36.8507 36.8927C35.6875 35.783 33.9746 35.6255 31.7622 36.4059L30.5847 36.8211L30.7203 38.0669L30.7417 38.5107C30.7346 38.9475 30.6418 39.4773 30.4634 40.4295C30.0423 42.606 27.5159 48.5627 25.7888 52.1281C23.5265 48.4768 19.9652 42.699 18.7306 40.6514C16.6966 37.2507 14.3343 35.4823 11.7294 35.4035C8.68917 35.3105 5.63464 37.5299 2.65148 41.9974C2.22328 42.6704 1.94495 43.1215 1.63807 43.7085L1.47392 44.0236H1.83076C3.06542 44.0379 4.39999 44.4531 5.31349 45.1118C6.00575 45.613 6.74797 46.4291 7.88272 47.7536C9.60267 49.8585 15.0266 56.6958 19.4656 63.0463C16.8393 68.2155 12.4788 74.7879 10.3235 77.5801L10.2949 77.623L10.2735 77.6517C8.77481 79.8353 5.57755 83.3793 4.16447 84.4102L3.62208 84.8111L3.5293 85.4841L3.49362 85.9567C3.47221 87.0521 3.89328 88.083 4.67118 88.8491C5.80592 89.966 7.64007 90.4815 9.45994 90.2022H9.50989C12.5145 89.6223 15.255 87.5389 17.6601 84.0093C19.9224 80.8734 23.0911 75.8188 25.5818 71.3585C26.3026 72.2677 27.0377 73.0911 28.4722 74.165C30.3206 75.4895 32.4617 75.7258 34.3458 74.8022C36.5225 73.7283 38.0569 71.2797 38.1639 68.6951V68.6092C38.4066 68.8097 38.6492 68.9958 38.899 69.1462C40.3763 70.0268 42.1391 70.1557 44.1231 69.5328L44.1802 69.5185C44.8225 69.2894 45.4291 68.96 46.0357 68.5591C45.7217 69.9481 45.3435 71.1795 44.9581 72.0816C44.4442 70.9504 43.3024 70.2273 41.8465 70.1414C39.1274 69.9839 36.0871 71.9957 35.7231 75.6255C35.5233 77.5944 36.2084 79.3914 37.593 80.5441C39.1773 81.8686 41.4468 82.1908 43.9804 81.4462C47.8841 80.3078 50.853 77.2507 52.7942 72.3751C54.3786 68.3944 54.9567 63.9627 55.2992 61.3209C55.3777 60.7338 55.4491 60.0608 55.5205 59.352C55.863 62.2444 57.0977 63.526 58.2467 64.063C59.5313 64.6644 62.2361 65.0796 65.8973 61.1419C66.3112 60.698 66.6395 60.2398 66.9464 59.8102C66.9963 59.8675 67.0392 59.9319 67.0963 59.9892C68.6592 61.7003 71.0143 62.3733 73.5621 61.8435L73.6264 61.8292L73.6977 61.8077C75.7032 61.1992 77.8656 60.34 80.2921 57.1684L80.3278 57.1254L80.3635 57.0681C80.7703 56.4381 81.1128 55.7937 81.4197 55.1422C81.3341 56.3379 81.2127 57.9344 81.2127 57.9344L81.1271 60.0608C81.0985 61.507 81.177 62.4234 81.4054 63.3184C81.905 65.5879 83.3894 67.1129 85.3806 67.3993C87.9355 67.7644 90.676 66.0103 92.5245 62.8172C92.8242 62.3017 93.024 61.7862 93.2381 61.235L93.3523 60.9486L93.1239 60.8841C92.346 60.6479 91.9607 60.4188 91.5325 59.9176C91.1542 59.4737 90.9472 58.6217 90.8473 57.2185C91.6966 57.2758 92.603 57.1612 93.5521 56.8748L93.595 56.8605L93.6521 56.839C96.6709 55.6935 98.8405 52.9658 100.439 48.3264C100.846 50.4313 101.717 52.2068 103.001 53.3595C104.229 54.4549 106.405 55.5933 109.852 54.7771C112.243 54.1471 114.177 52.9371 115.94 50.9754L115.983 50.9253C117.003 49.6939 117.846 48.2906 118.516 46.7656C118.452 47.8754 118.409 48.7488 118.395 49.3717V50.0876C118.467 51.856 119.359 52.7581 120.087 53.2163C121.835 54.2974 124.162 53.6531 125.082 53.3237L126.424 52.751L126.931 52.5147L126.895 52.3429C126.724 51.5339 126.638 50.732 126.659 49.923C126.667 49.4719 126.709 49.0209 126.774 48.5627L126.952 47.1737C126.952 47.1737 127.088 46.0998 127.173 45.4125C128.187 46.8229 129.286 48.3192 130.677 49.9588C132.983 52.7295 135.823 55.6434 139.406 56.3164H139.456L139.513 56.3307C142.232 56.6529 144.815 55.8009 146.614 53.9824C148.134 52.4431 148.898 50.3883 148.655 48.4839C148.612 47.9398 148.498 47.2382 148.377 46.7513L148.312 46.4936L148.077 46.601C146.971 47.1236 146.2 47.4171 144.78 47.1451C143.067 46.7585 140.533 44.9471 138.785 43.3219C136.123 40.8233 134.203 38.8902 133.054 37.5514C135.017 35.3892 140.298 30.5995 142.974 28.9099C143.588 28.5447 144.244 28.4159 144.494 29.0889L145.636 28.2297C149.44 25.3158 149.483 22.4234 148.369 20.834C147.099 19.0226 143.852 18.321 140.355 20.5905L140.319 20.6478ZM44.3229 59.7458C44.3871 56.7388 45.0937 52.1639 45.7289 50.689C45.893 50.3024 46.0714 49.9301 46.3212 49.5936C46.571 50.0304 46.6994 50.5029 46.7351 51.2188V51.3048L46.7423 52.9729C46.6852 55.894 46.3355 58.6003 45.8644 59.8747C45.4719 60.9271 45.0223 61.6287 44.5013 62.044C44.3729 61.5357 44.3086 60.7624 44.3301 59.7529L44.3229 59.7458ZM67.3675 42.3196C67.8313 42.1907 68.5022 42.0117 69.2373 41.7182C67.1248 43.7085 65.7046 46.4649 64.941 49.9086C64.941 49.4862 64.941 49.0495 64.9552 48.6343C64.9909 46.7585 65.098 44.8039 65.255 42.8136C65.5333 42.7492 67.3675 42.3196 67.3675 42.3196ZM72.8271 51.1902C72.8699 48.9564 73.4337 46.737 74.1188 45.9423C74.5042 46.8802 74.8467 48.9421 74.8467 50.1234C74.754 52.4646 74.2615 54.2187 73.5479 54.8272C73.1553 54.1614 72.8485 52.8226 72.8271 51.5696V51.1902ZM92.0249 40.587C92.3318 39.9283 92.6743 39.5417 92.9598 39.3055C93.0098 39.5847 93.0454 39.9999 93.0312 40.6443C93.0169 41.4103 92.9313 42.3411 92.7814 43.415C92.3246 46.1714 91.6181 48.4266 90.7474 49.9874C90.9116 45.1834 91.5182 41.439 91.9107 40.7946C91.9535 40.723 91.9892 40.6658 92.0249 40.5942V40.587ZM110.345 38.3174C110.466 38.0597 110.602 37.8736 110.723 37.7304C111.173 38.7971 111.408 40.2075 111.408 42.0762C111.251 44.761 110.88 46.3146 110.131 47.4315C109.917 47.7393 109.731 47.861 109.617 47.9112C109.488 47.7393 109.174 47.095 109.089 44.9471C109.067 44.4818 109.075 44.045 109.117 43.5797C109.267 41.9545 109.56 40.0071 110.352 38.3246L110.345 38.3174ZM65.7617 58.5931C65.4905 58.2351 65.2907 57.6409 65.1622 56.8176C65.4477 57.6624 65.8116 58.4499 66.3112 59.1372C66.3398 59.173 66.3683 59.2017 66.3969 59.2375C66.1685 59.0656 65.9472 58.8723 65.7617 58.6003V58.5931Z" fill="white"/>
<path d="M8.45206 90.3885C6.93907 90.3885 5.53313 89.8587 4.59108 88.9423C3.79177 88.1619 3.3707 87.1166 3.39211 85.9997L3.42779 85.52L3.52057 84.8113L4.09151 84.3888C5.49745 83.3579 8.68043 79.8283 10.1863 77.6446L10.2362 77.573C12.3773 74.8095 16.7307 68.2514 19.357 63.0894C14.9179 56.7461 9.51543 49.9302 7.80261 47.8397C6.67501 46.5152 5.93279 45.699 5.24766 45.205C4.34843 44.5535 3.03527 44.1454 1.80775 44.1311H1.32959L1.54369 43.7015C1.85771 43.1072 2.14318 42.6347 2.55711 41.9975V41.9832C5.49745 37.5873 8.51629 35.3535 11.5209 35.3535C11.5851 35.3535 11.6422 35.3535 11.7064 35.3535C14.3399 35.4323 16.7164 37.2078 18.7718 40.6372C20.0493 42.7564 23.6176 48.5485 25.7587 51.9922C27.4358 48.5127 29.9408 42.6347 30.369 40.4296C30.5474 39.5132 30.6402 38.9619 30.6473 38.5252L30.6259 38.0884L30.4903 36.7854L31.725 36.3487C33.9516 35.554 35.7073 35.7258 36.8848 36.8499C37.7841 37.709 38.2194 39.0335 38.1837 40.7947C38.1552 42.0405 37.8911 43.544 37.3915 45.2551C36.3567 48.8062 34.2371 54.7343 31.3681 60.7339C34.9222 66.2038 36.1212 66.9269 36.4067 67.0199C36.4852 67.0486 36.5779 67.0557 36.7064 67.0486C36.0998 66.0534 35.6502 64.8578 35.3718 63.4903C35.0578 61.7148 34.9151 59.7316 34.9579 57.7484C35.015 55.035 35.3933 52.4217 36.0641 50.188L36.0927 50.0877C37.1061 47.3099 38.8403 46.4436 40.1106 46.2073C40.4032 46.15 40.703 46.1285 41.0027 46.1285C42.8297 46.1285 44.5283 47.1237 45.4989 48.0545C45.7415 48.2907 45.9342 48.5341 46.0984 48.7561C46.2482 48.4482 46.4195 48.1404 46.6193 47.8468C47.7898 46.1357 50.6873 44.2241 52.9496 44.0953C51.4723 43.8089 50.3661 43.0285 49.8237 41.8615C49.0672 40.2363 49.6168 38.2531 51.3225 36.4203L52.0718 35.69L52.2431 35.7473C52.6856 35.8905 53.0638 36.005 53.4706 36.0265C54.0344 36.0552 54.8765 35.9907 56.0541 35.826C60.0007 35.2819 63.1766 34.5803 66.6593 33.4777C68.1366 33.0124 69.1286 32.5685 69.9065 32.2033C70.8771 31.7523 71.7763 31.2225 72.3758 30.8645L72.6114 30.7213L72.7684 30.9504C73.4535 31.9599 73.9102 32.7618 74.0316 34.5946L74.0601 35.4394C74.0316 36.8857 73.6176 38.1457 72.8326 39.1982C73.3607 38.9547 73.9102 38.7471 74.4669 38.5681L74.5097 38.5538C77.1004 37.7877 79.2271 38.0598 80.7829 39.3485C81.4109 39.8712 81.9319 40.5513 82.3245 41.3818C82.3245 41.3317 82.3245 41.2816 82.3316 41.2315L82.4386 39.6778C82.4386 39.6778 82.5171 38.3677 82.5314 38.1958V38.16C82.5314 37.1076 82.146 36.5563 81.1397 36.1482L81.0327 36.1053L81.4966 35.6757C81.8106 35.3822 82.1246 35.0886 82.5742 34.7593C83.9802 33.6567 85.8857 32.3895 88.1052 32.3895C88.7404 32.3895 89.3827 32.4969 90.0107 32.7117L90.1392 32.7618C90.4175 32.8835 90.6887 33.0696 90.9528 33.3202C92.3658 31.7738 93.9074 30.7714 95.6702 30.2631L95.7058 30.2488C96.3267 30.0841 96.9191 30.0054 97.4686 30.0054C99.0887 30.0054 100.123 30.6999 100.709 31.2869C101.851 32.4181 102.457 34.3082 102.514 36.9071C104.477 33.5994 107.353 31.3299 110.65 30.4922C111.599 30.2345 112.513 30.1056 113.362 30.1056C115.446 30.1056 116.823 30.8932 117.609 31.559C118.329 32.1676 118.922 32.9623 119.357 33.9359L119.393 33.3775C119.393 33.3775 119.436 32.2964 119.436 32.2606C119.464 30.8287 119.386 29.8049 118.08 29.6904L117.466 29.6474L117.573 29.5329C118.696 28.3492 119.259 27.7573 119.264 27.7573C120.77 26.3182 123.361 24.6429 125.73 24.6429C126.18 24.6429 126.608 24.7074 126.993 24.8291C128.249 25.2372 129.07 26.2824 129.263 27.7L129.306 28.6809C129.291 29.268 129.241 29.9911 129.141 30.8359V30.8717C129.141 30.8717 129.092 31.3227 129.042 31.7165C132.86 27.3635 138.184 21.9223 140.268 20.562C141.724 19.617 143.237 19.123 144.664 19.123C146.241 19.123 147.633 19.7602 148.382 20.8269C149.517 22.445 149.474 25.3732 145.634 28.3229L144.407 29.2393L144.371 29.1462C144.264 28.8599 144.072 28.7167 143.793 28.7167C143.565 28.7167 143.272 28.8169 142.951 29.0031C140.339 30.6569 135.072 35.418 133.095 37.5873C134.251 38.9261 136.164 40.852 138.783 43.3006C140.525 44.9186 143.044 46.7156 144.742 47.1022C145.099 47.1738 145.42 47.2025 145.72 47.2025C146.569 47.2025 147.197 46.9376 147.99 46.5581L148.311 46.4078L148.396 46.7514C148.518 47.2383 148.632 47.9399 148.675 48.4983C148.917 50.4242 148.147 52.5005 146.612 54.0613C145.056 55.6363 142.915 56.5026 140.582 56.5026C140.211 56.5026 139.825 56.4812 139.447 56.4382L139.34 56.4239C135.736 55.7437 132.881 52.8155 130.569 50.0376C129.184 48.4053 128.092 46.9233 127.172 45.6417L126.972 47.2096C126.836 48.2979 126.808 48.5413 126.793 48.6057C126.729 49.0639 126.686 49.515 126.679 49.9589C126.665 50.7607 126.736 51.5411 126.915 52.3645L126.965 52.5936L126.408 52.8513L125.066 53.4241C124.545 53.6102 123.503 53.9181 122.383 53.9181C121.462 53.9181 120.663 53.7104 120.006 53.3095C119.257 52.8441 118.351 51.9134 118.279 50.1235V49.4004C118.286 48.8778 118.322 48.1547 118.372 47.1953C117.723 48.5986 116.923 49.8801 115.996 51.0042L115.953 51.0543C114.176 53.0303 112.235 54.2402 109.829 54.8774C109.044 55.0636 108.281 55.1567 107.56 55.1567C105.298 55.1567 103.785 54.2259 102.914 53.4384C101.694 52.343 100.823 50.682 100.38 48.6272C98.7746 53.1592 96.6265 55.7939 93.6433 56.9251L93.5434 56.9608C92.6299 57.2401 91.7378 57.3618 90.8957 57.3117C90.9956 58.6505 91.2026 59.4667 91.5523 59.8819C91.9662 60.3616 92.3373 60.5907 93.1081 60.827L93.4149 60.92L93.2722 61.278C93.0653 61.8007 92.8511 62.3448 92.5514 62.8674C90.86 65.7885 88.4192 67.5283 86.0141 67.5283C85.7858 67.5283 85.5574 67.5139 85.329 67.4781C83.3093 67.1846 81.8035 65.6381 81.2896 63.34C81.0541 62.4379 80.9756 61.5143 81.0113 60.0681C81.0827 58.314 81.0898 58.0061 81.0969 57.9417C81.0969 57.9417 81.1897 56.6602 81.2754 55.5361C80.9756 56.1375 80.6901 56.6458 80.3833 57.1255L80.3048 57.2329C77.864 60.4189 75.6944 61.278 73.6747 61.8937L73.532 61.9295C72.9611 62.0512 72.3972 62.1085 71.8406 62.1085C69.9279 62.1085 68.2008 61.3783 66.9947 60.0537C66.959 60.018 66.9305 59.9822 66.902 59.9464C66.6236 60.333 66.3025 60.7769 65.9028 61.2064C63.8474 63.4187 61.8563 64.5356 59.9722 64.5356C59.3299 64.5356 58.7233 64.4067 58.1666 64.1418C57.1746 63.6764 55.9399 62.5739 55.4832 59.9607C55.4261 60.4762 55.3761 60.9415 55.3262 61.3353V61.3639C54.9765 64.0058 54.3913 68.4303 52.814 72.4039C50.8657 77.3081 47.8825 80.3724 43.9573 81.5179C43.0652 81.7828 42.1946 81.9117 41.3738 81.9117C39.868 81.9117 38.5263 81.4606 37.4986 80.5943C36.0927 79.4202 35.4004 77.6017 35.6002 75.6113C35.6787 74.8381 35.8785 74.1078 36.1926 73.4492C35.643 74.0362 35.015 74.5088 34.3299 74.8453C33.5662 75.2175 32.7598 75.4109 31.9248 75.4109C30.7044 75.4109 29.484 74.9956 28.385 74.2081C27.0504 73.2129 26.3225 72.4468 25.5445 71.4731C23.061 75.9049 19.8994 80.9451 17.6727 84.0309C15.2534 87.582 12.4915 89.6725 9.47261 90.2453H9.41552C9.08723 90.3097 8.7518 90.3312 8.42351 90.3312L8.45206 90.3885ZM3.6633 84.89L3.57766 85.5272L3.54198 85.9997C3.52057 87.0737 3.92736 88.076 4.69813 88.8277C5.61163 89.7227 6.97475 90.231 8.45206 90.231C8.77321 90.231 9.1015 90.2024 9.42265 90.1594H9.47261C12.4558 89.5795 15.182 87.5104 17.5799 83.9951C19.828 80.8807 23.011 75.8046 25.5017 71.3514L25.5588 71.2512L25.6302 71.3371C26.4224 72.3394 27.1503 73.1198 28.5063 74.1293C29.5768 74.9025 30.7758 75.3106 31.9605 75.3106C32.7669 75.3106 33.552 75.1245 34.3013 74.7593C35.2006 74.3155 36.0141 73.621 36.6565 72.7475C36.7064 72.6688 36.7635 72.59 36.8206 72.5113C37.5771 71.3872 38.0267 70.0412 38.0767 68.7167V68.4733L38.198 68.5735C38.4835 68.8098 38.7047 68.9745 38.9188 69.1033C40.3747 69.9625 42.1303 70.0985 44.0858 69.4828L44.1429 69.4685C44.721 69.2609 45.3205 68.953 45.977 68.5234L46.0912 68.6022C45.7701 69.9983 45.399 71.2226 45.0064 72.139L44.9422 72.2965L44.8708 72.139C44.3641 71.0292 43.2223 70.3205 41.8235 70.2417C41.7307 70.2417 41.6308 70.2345 41.5308 70.2345C39.7752 70.2345 38.0124 71.1366 36.9348 72.59C36.8848 72.6688 36.8277 72.7475 36.7706 72.8263C36.2211 73.6568 35.8857 74.609 35.7786 75.6614C35.5788 77.6017 36.2568 79.3772 37.6199 80.5156C38.6191 81.3532 39.9251 81.7971 41.4024 81.7971C42.2088 81.7971 43.0652 81.6682 43.9431 81.4105C47.8255 80.2793 50.7729 77.2365 52.707 72.3824C54.2771 68.4303 54.8623 64.0129 55.2048 61.3783V61.3496C55.2762 60.8127 55.3547 60.1468 55.4332 59.3879H55.5831C55.9328 62.3591 57.2388 63.5619 58.2665 64.0416C58.8018 64.2922 59.387 64.421 60.0079 64.421C61.8491 64.421 63.8046 63.3185 65.8314 61.142C66.2454 60.6909 66.5879 60.2184 66.8734 59.8175L66.9305 59.7387L66.9947 59.8103C66.9947 59.8103 67.0304 59.8533 67.0518 59.8819C67.0804 59.9177 67.1089 59.9535 67.1446 59.9893C68.3293 61.2852 70.0136 62.0011 71.8834 62.0011C72.4258 62.0011 72.9825 61.9439 73.5391 61.8221L73.6676 61.7864C75.6587 61.1778 77.8069 60.3258 80.2191 57.1756L80.2905 57.0826C80.6545 56.5241 80.9827 55.9156 81.3396 55.1638L81.4823 55.1996C81.3967 56.3953 81.2754 57.9918 81.2754 57.9918V58.0133C81.2754 58.0133 81.2183 59.4022 81.1897 60.1182C81.1612 61.5501 81.2397 62.4593 81.468 63.3543C81.9605 65.5952 83.4235 67.0987 85.379 67.3851C85.5931 67.4137 85.8215 67.4352 86.0427 67.4352C88.3907 67.4352 90.7815 65.7169 92.4515 62.846C92.7512 62.3305 92.9511 61.8221 93.1652 61.278L93.2508 61.0704L93.1009 61.0274C92.3016 60.784 91.9091 60.5478 91.4809 60.0394C91.0955 59.5884 90.8743 58.7436 90.7815 57.2973V57.2114H90.86C91.7021 57.2687 92.6085 57.1542 93.5363 56.8678L93.6291 56.8391C96.6265 55.7079 98.7675 53.016 100.366 48.3766H100.509C100.923 50.5316 101.801 52.2571 103.042 53.3811C103.899 54.1472 105.376 55.0564 107.589 55.0564C108.295 55.0564 109.052 54.9634 109.822 54.7772C112.192 54.1472 114.119 52.9444 115.874 50.997L115.917 50.9469C116.916 49.7369 117.758 48.3408 118.436 46.8015L118.579 46.8373C118.508 47.9972 118.472 48.8492 118.458 49.4362V50.1522C118.529 51.8776 119.4 52.7726 120.113 53.2164C120.749 53.6102 121.519 53.8035 122.412 53.8035C123.511 53.8035 124.531 53.5028 125.045 53.3167L126.387 52.7511L126.836 52.5434L126.815 52.4289C126.636 51.5984 126.558 50.8037 126.579 49.9875C126.587 49.5365 126.629 49.0783 126.694 48.6129C126.701 48.5556 126.808 47.6822 126.872 47.2239L127.093 45.4627L127.229 45.4269C128.171 46.7371 129.298 48.2764 130.726 49.966C133.024 52.7224 135.857 55.6292 139.411 56.3022L139.511 56.3165C139.882 56.3595 140.261 56.3809 140.624 56.3809C142.915 56.3809 145.021 55.529 146.548 53.9825C148.054 52.4575 148.81 50.4242 148.568 48.5413C148.525 47.99 148.411 47.3027 148.289 46.8159L148.247 46.644L148.09 46.7156C147.276 47.1022 146.634 47.3743 145.756 47.3743C145.442 47.3743 145.113 47.3385 144.742 47.2669C143.008 46.8731 140.467 45.0546 138.712 43.4223C136.064 40.9308 134.13 38.9905 132.974 37.6446L132.931 37.5944L132.974 37.5443C134.972 35.3464 140.211 30.5925 142.908 28.8885C143.665 28.4375 144.243 28.4876 144.5 29.0102L145.57 28.2084C149.324 25.3231 149.381 22.4808 148.282 20.9128C147.561 19.8819 146.213 19.2662 144.685 19.2662C143.294 19.2662 141.802 19.753 140.375 20.6837C138.269 22.0512 132.838 27.6141 129.02 31.9886L128.892 31.9313C128.942 31.5232 129.02 30.8502 129.02 30.8502V30.8144C129.12 29.9767 129.177 29.2608 129.191 28.6809L129.156 27.7143C128.977 26.3684 128.185 25.366 126.986 24.9794C126.615 24.8577 126.201 24.8004 125.766 24.8004C123.446 24.8004 120.891 26.4543 119.407 27.8719C119.4 27.879 118.201 29.1391 117.83 29.5329L118.129 29.5543C119.557 29.676 119.65 30.8574 119.621 32.2749C119.621 32.3107 119.578 33.399 119.578 33.399L119.521 34.2653L119.378 34.2868C118.936 33.2057 118.322 32.3322 117.551 31.6879C116.781 31.0435 115.439 30.2703 113.398 30.2703C112.563 30.2703 111.664 30.3992 110.729 30.6497C107.396 31.4946 104.491 33.8286 102.55 37.2221L102.407 37.1863C102.386 34.4944 101.793 32.547 100.644 31.4086C100.081 30.843 99.0744 30.1701 97.5043 30.1701C96.969 30.1701 96.3838 30.2488 95.7843 30.4063L95.7487 30.4206C93.993 30.929 92.4515 31.9384 91.0455 33.4921L90.9956 33.5493L90.9385 33.4921C90.6673 33.22 90.3961 33.0267 90.1178 32.905L89.9964 32.862C89.3827 32.6544 88.7618 32.547 88.1409 32.547C85.9642 32.547 84.0944 33.7999 82.7027 34.8882C82.2602 35.2175 81.9462 35.511 81.6465 35.7902L81.3467 36.0695C82.3316 36.499 82.7241 37.1004 82.7312 38.1744V38.2173C82.717 38.3891 82.6385 39.6993 82.6385 39.6993L82.5314 41.2529C82.5243 41.3961 82.51 41.5465 82.5029 41.6968L82.3601 41.7183C81.9605 40.7876 81.4181 40.0358 80.7401 39.4702C79.22 38.2102 77.136 37.9453 74.6025 38.697L74.5597 38.7113C73.9102 38.9189 73.2679 39.1767 72.6613 39.4702L72.5685 39.3557C73.4606 38.2818 73.9245 36.9644 73.9531 35.4466L73.9245 34.6089C73.8032 32.8119 73.3536 32.0315 72.6827 31.0363L72.6042 30.9218L72.49 30.9934C71.8905 31.3585 70.9842 31.8883 70.0136 32.3394C69.2357 32.7117 68.2365 33.1556 66.7449 33.6209C63.2479 34.7235 60.0721 35.4251 56.1112 35.9692C54.9194 36.1339 54.0772 36.1912 53.4992 36.1697C53.071 36.1482 52.6856 36.0337 52.2288 35.8833L52.1432 35.8547L51.4652 36.5205C49.8023 38.3032 49.2671 40.222 49.995 41.7899C50.7087 43.3292 52.4643 44.1669 54.7552 44.0451V44.0595C54.898 44.0308 55.369 44.0093 57.0176 43.9091H57.1103L57.0961 43.995C57.0318 44.4604 56.4823 48.6272 56.4823 48.6272C56.4395 48.8993 56.4038 49.1785 56.3681 49.4506L56.3182 49.8085L56.1683 49.7942C56.1683 49.7942 56.1683 49.7441 56.1683 49.7226C56.1897 49.4219 56.204 49.1427 56.2111 48.8706C56.2254 48.1046 56.1754 47.4029 56.047 46.5868C55.8471 45.3338 54.9979 44.4675 53.7704 44.2671C53.5991 44.2384 53.4135 44.2241 53.228 44.2241C50.9799 44.2241 47.9682 46.1787 46.7764 47.9184C46.5551 48.2406 46.3696 48.5771 46.2125 48.9207L46.1626 49.0353L46.0841 48.9279C45.9128 48.6845 45.6916 48.4053 45.4275 48.1475C44.4783 47.2383 42.8226 46.2574 41.0313 46.2574C40.7387 46.2574 40.4461 46.2861 40.1677 46.3362C38.9331 46.5653 37.2488 47.4101 36.2568 50.1235L36.2282 50.2095C35.5645 52.4289 35.1863 55.0278 35.1292 57.7269C35.0864 59.6958 35.2362 61.6718 35.5431 63.4402C35.8286 64.8363 36.2853 66.0534 36.9205 67.0486L36.9847 67.1488L36.8706 67.1631C36.6493 67.1918 36.5137 67.1846 36.3924 67.1416C36.0927 67.0486 34.8437 66.304 31.2539 60.7554L31.2325 60.7196L31.2539 60.6838C34.1229 54.677 36.2497 48.7418 37.2845 45.1907C37.7769 43.4939 38.041 42.0047 38.0695 40.7733C38.1052 39.055 37.6841 37.7591 36.8135 36.9358C35.6716 35.8547 33.973 35.6972 31.8035 36.4704L30.683 36.8713L30.8115 38.0598L30.8329 38.5037C30.8257 38.9619 30.733 39.5132 30.5474 40.4368C30.1121 42.6777 27.55 48.6845 25.8657 52.1568L25.8086 52.2785L25.7372 52.164C23.6105 48.7346 19.9779 42.8352 18.679 40.6873C16.6522 37.3081 14.3185 35.554 11.7421 35.4752C11.685 35.4752 11.6208 35.4752 11.5637 35.4752C8.60906 35.4752 5.64018 37.6804 2.73553 42.0262V42.0405C2.3216 42.6848 2.02899 43.1502 1.72211 43.7444L1.61506 43.9521H1.85057C3.0995 43.9664 4.44835 44.3888 5.37612 45.0546C6.07552 45.5558 6.81774 46.372 7.95962 47.7108C9.67244 49.8085 15.0964 56.6458 19.5425 63.0035L19.5711 63.0393L19.5497 63.0822C16.9234 68.2585 12.5485 74.8524 10.4004 77.6231L10.3504 77.6947C8.84458 79.8855 5.64018 83.4295 4.22711 84.4676L3.70612 84.8542L3.6633 84.89ZM41.5308 70.0985C41.6308 70.0985 41.7307 70.0985 41.8306 70.1057C43.2294 70.1844 44.3713 70.8646 44.9351 71.9385C45.2848 71.0865 45.6202 69.9911 45.9057 68.7525C45.299 69.1391 44.7352 69.4184 44.1857 69.6188L44.1286 69.6331C42.1303 70.256 40.3319 70.12 38.8403 69.2394C38.6476 69.1248 38.4549 68.9816 38.2194 68.7955C38.1694 69.8479 37.8697 70.9147 37.3701 71.8669C38.4763 70.7572 40.0036 70.0985 41.5237 70.0985H41.5308ZM54.1629 44.2241C55.2477 44.5391 55.9827 45.3983 56.1754 46.5796C56.2825 47.2239 56.3324 47.8039 56.3467 48.3981C56.4538 47.5748 56.8391 44.7324 56.9248 44.0809C56.2397 44.1239 55.0478 44.1883 54.798 44.2098H54.7481C54.5483 44.217 54.3556 44.2241 54.1629 44.217V44.2241ZM44.4498 62.1658L44.4212 62.0512C44.2856 61.5214 44.2285 60.7482 44.2499 59.7387C44.3142 56.7174 45.0207 52.1354 45.663 50.6533C45.82 50.2882 46.0056 49.8944 46.2625 49.5436L46.3267 49.4506L46.3838 49.5508C46.6408 49.9947 46.7692 50.4887 46.8049 51.2046V51.2905L46.812 52.9587C46.7549 55.8869 46.4052 58.6075 45.9271 59.8891C45.5346 60.9344 45.0849 61.6575 44.5354 62.0942L44.4426 62.1658H44.4498ZM46.3125 49.7298C46.0984 50.0448 45.9414 50.3884 45.7986 50.7178C45.1634 52.1855 44.4569 56.7461 44.3998 59.7459C44.3855 60.6551 44.4284 61.3926 44.5425 61.9009C45.0278 61.4785 45.4346 60.7983 45.7915 59.839C46.2625 58.5717 46.6051 55.8726 46.6622 52.9587C46.6622 52.9587 46.6622 51.3049 46.6622 51.2977V51.2189C46.6265 50.5818 46.5194 50.1307 46.3125 49.7369V49.7298ZM66.3453 59.2877C66.1526 59.1445 65.8957 58.9369 65.6958 58.629C65.4247 58.2782 65.2177 57.6625 65.0821 56.8248L65.2248 56.789C65.5317 57.7054 65.9028 58.4572 66.3667 59.0872C66.381 59.1015 66.3881 59.1159 66.4024 59.1302C66.4167 59.1445 66.4309 59.166 66.4452 59.1875L66.3453 59.2948V59.2877ZM65.4461 57.7556C65.5531 58.0921 65.6744 58.3498 65.8172 58.5431C65.8529 58.6004 65.8957 58.6505 65.9314 58.7006C65.7529 58.4071 65.5888 58.0921 65.4389 57.7556H65.4461ZM73.532 54.9347L73.4892 54.856C73.0752 54.1615 72.7755 52.8083 72.7541 51.5626V51.176C72.804 48.9709 73.3607 46.6941 74.0672 45.878L74.1457 45.7849L74.1957 45.8994C74.5739 46.8087 74.9308 48.8563 74.9308 50.1092C74.838 52.4647 74.3384 54.2402 73.6034 54.8703L73.5391 54.9276L73.532 54.9347ZM74.0958 46.0856C73.4535 46.9519 72.9396 49.0997 72.904 51.1903V51.5698C72.9182 52.7368 73.1966 54.0111 73.5677 54.7056C74.2385 54.0541 74.6881 52.3501 74.7738 50.1164C74.7738 48.9279 74.4455 47.0306 74.0958 46.0856ZM90.8172 50.0162L90.6744 49.9804C90.8314 45.4126 91.4167 41.4462 91.8449 40.7518L91.8663 40.716C91.8948 40.6587 91.9305 40.6086 91.9591 40.5513C92.216 40 92.5371 39.5633 92.9154 39.2411L93.0153 39.1552L93.0367 39.2841C93.1009 39.6349 93.1223 40.0859 93.1152 40.6372C93.1009 41.4176 93.0153 42.3555 92.8654 43.4151C92.4087 46.1572 91.7021 48.4411 90.8243 50.009L90.8172 50.0162ZM92.9082 39.4487C92.5942 39.7423 92.3159 40.1361 92.0947 40.6157C92.0661 40.6802 92.0304 40.7303 91.9947 40.7876L91.9733 40.8234C91.6165 41.4033 91.017 44.8613 90.8314 49.6582C91.6308 48.1117 92.2802 45.9567 92.7084 43.3936C92.8583 42.3412 92.9439 41.4104 92.9582 40.6372C92.9653 40.1647 92.9511 39.7638 92.9082 39.4487ZM65.0107 49.9231L64.8608 49.9088C64.8608 49.7083 64.8608 49.5007 64.8608 49.3002C64.8608 49.0783 64.8608 48.8492 64.8608 48.6344C64.8965 46.7801 64.9964 44.8184 65.1606 42.8065V42.7493L65.2177 42.735C65.496 42.6705 67.3302 42.2409 67.3302 42.2409C67.8155 42.1049 68.472 41.9259 69.1928 41.6467L69.2714 41.7684C67.2017 43.723 65.7601 46.465 64.9964 49.9159L65.0107 49.9231ZM65.3247 42.8781C65.1677 44.8613 65.0678 46.8015 65.025 48.6415C65.025 48.842 65.025 49.0425 65.025 49.2501C65.7886 46.2073 67.1018 43.7516 68.9288 41.9188C68.3364 42.1336 67.8083 42.2767 67.4015 42.3913H67.3801C67.3801 42.3913 65.7244 42.7851 65.3176 42.8781H65.3247ZM109.594 47.99L109.558 47.9399C109.423 47.7538 109.102 47.0879 109.016 44.9401C108.994 44.4246 109.002 43.995 109.044 43.5655C109.173 42.1622 109.437 40.0859 110.279 38.2818C110.379 38.067 110.507 37.8665 110.664 37.6732L110.743 37.5801L110.793 37.6947C111.257 38.7901 111.478 40.222 111.485 42.0691C111.328 44.7754 110.95 46.3362 110.193 47.4674C109.972 47.7824 109.779 47.9184 109.651 47.9685L109.594 47.99ZM110.707 37.8665C110.593 38.0169 110.5 38.1744 110.422 38.339C109.587 40.1217 109.323 42.1765 109.194 43.5726C109.151 44.0022 109.144 44.4246 109.166 44.9329C109.244 46.8946 109.523 47.5891 109.644 47.8039C109.751 47.7466 109.901 47.6249 110.072 47.3815C110.814 46.2789 111.178 44.7396 111.335 42.0691C111.335 40.3079 111.128 38.9333 110.707 37.8737V37.8665Z" fill="white"/>
<path fill-rule="evenodd" clip-rule="evenodd" d="M44.5775 49.4935C43.2786 51.2619 41.159 65.1943 44.5918 63.8411C45.591 63.3901 46.426 62.6097 47.1325 60.9058C48.1459 58.8725 48.3814 53.8035 48.31 51.219C48.2601 50.3025 48.253 49.8658 47.8176 49.0998C48.8596 47.0951 54.0979 44.1454 54.5262 46.8517C54.6832 47.8325 54.7117 48.6344 54.6332 49.6797C54.4762 52.7583 54.0908 58.0992 53.6912 61.1563C53.32 63.9986 52.7491 68.144 51.2861 71.8311C49.8088 75.5326 47.4108 78.8259 43.4999 79.9643C39.3463 81.1814 36.9555 78.826 37.2624 75.8261C37.7191 71.2655 43.6783 70.5925 43.6426 73.5422C43.086 74.2224 43.0574 75.64 44.4348 75.1531C47.0397 74.2296 48.153 66.1608 48.2815 64.1204C46.583 66.4615 45.1057 67.5211 43.6212 68.0438C39.8031 69.2322 37.7405 66.8624 37.0055 63.1896C36.3703 59.5598 36.4631 54.634 37.6478 50.6605C39.3249 46.0641 43.2786 48.0115 44.5704 49.4792L44.5775 49.4935ZM25.8793 55.3357C24.3663 52.9301 19.0066 44.2385 17.3509 41.4964C13.8896 35.7187 9.41481 34.8524 3.91953 42.8996C5.56098 43.1144 6.84559 44.1526 9.05798 46.7514C10.3997 48.3981 16.4516 55.9657 21.2761 62.939C18.7925 68.0509 14.0822 75.3035 11.5416 78.5825C9.94293 80.9094 6.61008 84.5822 5.06854 85.7205C4.79021 87.8755 7.07396 88.9853 9.18644 88.6559C11.2418 88.2693 13.7397 86.9305 16.3232 83.136C18.8567 79.6278 22.682 73.4635 25.3226 68.5091C26.9141 70.478 27.3637 71.4016 29.3905 72.9122C32.909 75.4395 36.4131 72.1103 36.5558 68.6523C34.9858 69.0604 32.0668 64.9151 29.4833 60.8556C32.7448 54.1758 34.9001 47.897 35.8065 44.7897C36.877 41.1169 37.4908 36.0623 32.2809 37.9166C32.3666 38.7185 32.2595 39.3772 32.0026 40.7446C31.3888 43.8948 27.171 53.2737 25.8864 55.3357H25.8793ZM74.0094 44.0953C71.5901 44.8399 71.219 50.009 71.2333 51.5769C71.2547 53.0017 71.6186 54.9491 72.3609 55.9514C72.9175 56.6101 73.3457 56.653 73.8453 56.4955C76.0434 55.6292 76.3574 51.7416 76.4217 50.1379C76.4217 48.9494 75.9221 43.4867 74.0023 44.0881L74.0094 44.0953ZM74.9943 40.1647C69.5918 41.9116 67.094 46.2431 66.2375 51.355C65.9378 54.0112 66.159 56.8177 68.2215 58.9584C69.5704 60.4404 71.5116 60.6981 73.2101 60.3401C74.9658 59.8032 76.8142 59.1087 79.0052 56.2592C80.2898 54.2689 81.1747 52.0638 81.5316 48.2406C81.9955 43.3578 80.875 38.4321 74.9943 40.1719V40.1647ZM54.6546 42.5488C55.8964 42.5059 57.1311 42.4056 58.7796 42.2768C58.5513 45.2265 57.2809 52.9587 57.0882 55.7939C56.2675 63.6192 60.1214 64.9007 64.8816 59.9392C64.0466 59.5526 63.5755 57.8988 63.4756 56.1161C63.233 51.5769 63.2972 46.2718 63.754 41.4821C64.7031 41.3246 65.9378 41.0453 66.9512 40.7733C69.3634 40.1146 72.7177 38.9548 72.3965 34.7235C72.2752 33.5279 72.1325 33.2415 71.9755 32.9981C70.7408 33.6854 69.4919 34.3369 67.1796 35.0672C63.3971 36.2556 60.0714 36.9573 56.3032 37.4727C54.2478 37.7591 53.2273 37.7376 52.5493 37.5587C49.9158 40.3723 51.2861 42.7135 54.6546 42.5345V42.5488ZM92.5578 37.6231C91.8156 38.0741 91.1376 38.7328 90.5881 39.8998C89.8102 41.0525 89.1393 46.6512 89.1108 52.0208C89.1108 52.7368 89.4819 53.0661 89.9886 53.0017C90.845 52.9014 91.6586 51.5769 92.044 50.9039C93.3357 48.6702 93.9995 45.6775 94.342 43.6585C94.5561 42.1336 95.3697 36.3773 92.5578 37.6231ZM83.6084 36.0838C84.5932 36.8069 84.1151 39.1695 84.0294 41.1169C83.851 43.7158 83.6084 46.6226 83.4014 49.5365C83.1944 52.4432 82.9375 55.3858 82.7662 58.0849C82.6449 60.5478 82.6164 61.8365 82.9232 62.9892C83.8225 67.1417 88.4828 66.9484 91.3018 61.7577C89.5461 60.9129 89.1607 58.987 89.1822 55.1424C90.1456 55.7509 91.416 55.9084 93.0717 55.4001C96.2475 54.1973 98.2529 50.8324 99.6803 45.4126C100.701 41.3604 102.992 30.0913 96.1476 31.874C93.6283 32.6115 91.8798 34.4228 90.3883 36.8785C90.531 35.9191 90.3669 34.6734 89.4962 34.3011C87.4979 33.6209 85.5852 34.5445 83.6084 36.091V36.0838ZM120.22 29.1821C121.026 29.3968 121.226 30.6784 121.069 33.4849C120.919 36.0409 120.612 39.6206 120.363 42.8137C120.113 46.0069 119.913 49.0496 119.949 50.0806C120.063 52.837 123.11 52.5578 125.137 51.6342C124.959 50.5317 125.001 49.5651 125.173 48.391C125.415 46.5152 125.787 43.2576 126.129 41.3747C127.692 43.4366 129.369 46.0641 131.846 48.9924C134.015 51.5913 136.563 54.2403 139.66 54.8202C144.335 55.3715 147.425 51.7631 147.047 48.7418C146.169 49.0711 145.405 48.9566 144.406 48.7633C142.251 48.2764 139.446 46.2073 137.662 44.5535C133.865 40.9881 131.817 38.8044 130.968 37.6159C131.817 36.0981 143.421 25.0152 144.628 27.0199C150.358 22.624 146.112 18.7722 141.166 21.9796C138.276 23.8554 128.684 34.2009 126.607 37.3868C127.043 35.2605 127.349 31.6449 127.499 30.6569C127.621 29.6188 127.706 28.5091 127.628 27.9363C127.221 24.8864 122.604 26.6691 120.213 29.1964L120.22 29.1821ZM111.963 36.585C111.149 34.8953 109.565 36.1984 108.901 37.6231C107.995 39.5705 107.645 41.7613 107.466 44.0881C107.481 45.6489 107.516 49.8658 109.829 49.4864C110.414 49.3718 110.978 48.9422 111.42 48.3051C112.491 46.7156 112.833 44.6179 112.976 42.0835C112.976 39.9285 112.712 38.0383 111.955 36.5778L111.963 36.585ZM111.085 32.1175C105.504 33.5279 102.349 39.1409 101.828 44.0022C101.165 49.4864 103.498 54.6985 109.458 53.2881C111.292 52.8012 113.026 51.8705 114.739 49.9661C117.165 47.0307 118.293 43.4223 118.586 40.0645C119.064 34.5946 116.808 30.571 111.085 32.1175Z" fill="#111C4E"/>
</g>
<defs>
<clipPath id="clip0_2005_2">
<rect width="150" height="92.25" fill="white" transform="translate(0.708496)"/>
</clipPath>
</defs>
</svg>
